{
  "accessors": [
    {
      "bufferView": 2,
      "componentType": 5126,
      "count": 5475,
      "max": [
        339617.25,
        339389.46875,
        339466.34375
      ],
      "min": [
        0.0,
        0.0,
        0.0
      ],
      "type": "VEC3"
    },
    {
      "bufferView": 2,
      "byteOffset": 65700,
      "componentType": 5126,
      "count": 5475,
      "max": [
        0.999253511428833,
        0.9991030097007751,
        0.9997413158416748
      ],
      "min": [
        -0.9994106292724609,
        -0.9991899132728577,
        -0.9993578195571899
      ],
      "type": "VEC3"
    },
    {
      "bufferView": 1,
      "componentType": 5126,
      "count": 5475,
      "max": [
        0.0,
        0.0
      ],
      "min": [
        0.0,
        0.0
      ],
      "type": "VEC2"
    },
    {
      "bufferView": 0,
      "componentType": 5125,
      "count": 32832,
      "type": "SCALAR"
    },
    {
      "bufferView": 2,
      "byteOffset": 131400,
      "componentType": 5126,
      "count": 2123,
      "max": [
        291813.84375,
        302755.5625,
        298991.78125
      ],
      "min": [
        76869.890625,
        84494.8515625,
        66701.5
      ],
      "type": "VEC3"
    },
    {
      "bufferView": 2,
      "byteOffset": 156876,
      "componentType": 5126,
      "count": 2123,
      "max": [
        0.9997410178184509,
        0.996463418006897,
        0.9912338256835938
      ],
      "min": [
        -0.9997410178184509,
        -0.996463418006897,
        -0.9912338256835938
      ],
      "type": "VEC3"
    },
    {
      "bufferView": 1,
      "byteOffset": 43800,
      "componentType": 5126,
      "count": 2123,
      "max": [
        1.0,
        1.0
      ],
      "min": [
        0.0,
        0.0
      ],
      "type": "VEC2"
    },
    {
      "bufferView": 0,
      "byteOffset": 131328,
      "componentType": 5125,
      "count": 11952,
      "type": "SCALAR"
    },
    {
      "bufferView": 2,
      "byteOffset": 182352,
      "componentType": 5126,
      "count": 129,
      "max": [
        267863.84375,
        212807.484375,
        294709.03125
      ],
      "min": [
        67972.5703125,
        147524.515625,
        50665.9296875
      ],
      "type": "VEC3"
    },
    {
      "bufferView": 2,
      "byteOffset": 183900,
      "componentType": 5126,
      "count": 129,
      "max": [
        0.9740437865257263,
        0.9988169074058533,
        0.9987291097640991
      ],
      "min": [
        -0.9720982313156128,
        -0.9989945888519287,
        -0.999980628490448
      ],
      "type": "VEC3"
    },
    {
      "bufferView": 1,
      "byteOffset": 60784,
      "componentType": 5126,
      "count": 129,
      "max": [
        0.9952669739723206,
        0.9648541212081909
      ],
      "min": [
        0.015755800530314445,
        0.1111171767115593
      ],
      "type": "VEC2"
    },
    {
      "bufferView": 0,
      "byteOffset": 179136,
      "componentType": 5125,
      "count": 318,
      "type": "SCALAR"
    },
    {
      "bufferView": 2,
      "byteOffset": 185448,
      "componentType": 5126,
      "count": 2304,
      "max": [
        292594.5625,
        282088.40625,
        301308.28125
      ],
      "min": [
        47068.484375,
        46018.12109375,
        43277.3203125
      ],
      "type": "VEC3"
    },
    {
      "bufferView": 2,
      "byteOffset": 213096,
      "componentType": 5126,
      "count": 2304,
      "max": [
        0.996444046497345,
        0.9975904226303101,
        0.9985118508338928
      ],
      "min": [
        -0.996444046497345,
        -0.9975904226303101,
        -0.9985118508338928
      ],
      "type": "VEC3"
    },
    {
      "bufferView": 1,
      "byteOffset": 61816,
      "componentType": 5126,
      "count": 2304,
      "max": [
        0.9985350966453552,
        0.9985350966453552
      ],
      "min": [
        0.0,
        0.0
      ],
      "type": "VEC2"
    },
    {
      "bufferView": 0,
      "byteOffset": 180408,
      "componentType": 5125,
      "count": 2304,
      "type": "SCALAR"
    }
  ],
  "asset": {
    "extras": {
      "author": "pARkesy84 (https://sketchfab.com/pARkesy84)",
      "license": "CC-BY-4.0 (http://creativecommons.org/licenses/by/4.0/)",
      "source": "https://sketchfab.com/3d-models/marble-3-litecoin-28b9a25d3e8d4df585ac880b45fcab75",
      "title": "Marble 3 - Litecoin"
    },
    "generator": "Sketchfab-12.68.0",
    "version": "2.0"
  },
  "bufferViews": [
    {
      "buffer": 0,
      "byteLength": 189624,
      "name": "floatBufferViews",
      "target": 34963
    },
    {
      "buffer": 0,
      "byteLength": 80248,
      "byteOffset": 189624,
      "byteStride": 8,
      "name": "floatBufferViews",
      "target": 34962
    },
    {
      "buffer": 0,
      "byteLength": 240744,
      "byteOffset": 269872,
      "byteStride": 12,
      "name": "floatBufferViews",
      "target": 34962
    }
  ],
  "buffers": [
    {
      "byteLength": 510616,
      "uri": "scene.bin"
    }
  ],
  "materials": [
    {
      "alphaMode": "BLEND",
      "doubleSided": true,
      "name": "StandardA1ADFF36",
      "pbrMetallicRoughness": {
        "baseColorFactor": [
          0.12030216539467407,
          0.18672873215904395,
          0.979986380953846,
          0.14155403145881595
        ],
        "roughnessFactor": 0.0
      }
    },
    {
      "alphaMode": "BLEND",
      "doubleSided": true,
      "emissiveFactor": [
        0.016620080636038252,
        0.03223526358823464,
        0.9899281931549411
      ],
      "name": "StandardA6FF48",
      "pbrMetallicRoughness": {
        "baseColorFactor": [
          0.2823530000000001,
          0.34413696994473725,
          1.0,
          0.4030014774820787
        ],
        "roughnessFactor": 0.0
      }
    },
    {
      "alphaMode": "BLEND",
      "doubleSided": true,
      "emissiveFactor": [
        0.013447333263968702,
        0.013555146787161083,
        0.004381446095927218
      ],
      "name": "StandardFF9937",
      "pbrMetallicRoughness": {
        "baseColorFactor": [
          0.8928293248917687,
          0.8058073015542349,
          0.0,
          0.5610859797287027
        ],
        "roughnessFactor": 0.0
      }
    },
    {
      "doubleSided": true,
      "emissiveFactor": [
        0.321109145188455,
        0.3083316929560728,
        0.3083316929560728
      ],
      "name": "StandardFFFFFF",
      "pbrMetallicRoughness": {
        "metallicFactor": 0.6705290967,
        "roughnessFactor": 0.0
      }
    }
  ],
  "meshes": [
    {
      "name": "Object_0",
      "primitives": [
        {
          "attributes": {
            "NORMAL": 1,
            "POSITION": 0,
            "TEXCOORD_0": 2
          },
          "indices": 3,
          "material": 0,
          "mode": 4
        }
      ]
    },
    {
      "name": "Object_1",
      "primitives": [
        {
          "attributes": {
            "NORMAL": 5,
            "POSITION": 4,
            "TEXCOORD_0": 6
          },
          "indices": 7,
          "material": 1,
          "mode": 4
        }
      ]
    },
    {
      "name": "Object_2",
      "primitives": [
        {
          "attributes": {
            "NORMAL": 9,
            "POSITION": 8,
            "TEXCOORD_0": 10
          },
          "indices": 11,
          "material": 3,
          "mode": 4
        }
      ]
    },
    {
      "name": "Object_3",
      "primitives": [
        {
          "attributes": {
            "NORMAL": 13,
            "POSITION": 12,
            "TEXCOORD_0": 14
          },
          "indices": 15,
          "material": 2,
          "mode": 4
        }
      ]
    }
  ],
  "nodes": [
    {
      "children": [
        1
      ],
      "matrix": [
        2.7447058528196067e-06,
        0.0,
        0.0,
        0.0,
        0.0,
        6.094471267247507e-22,
        -2.7447058528196067e-06,
        0.0,
        0.0,
        2.7447058528196067e-06,
        6.094471267247507e-22,
        0.0,
        0.0,
        0.0,
        0.0,
        1.0
      ],
      "name": "Sketchfab_model"
    },
    {
      "children": [
        2
      ],
      "matrix": [
        1.0,
        0.0,
        0.0,
        0.0,
        0.0,
        1.0,
        0.0,
        0.0,
        0.0,
        0.0,
        1.0,
        0.0,
        -146921.765625,
        -107922.2421875,
        9335.677734375,
        1.0
      ],
      "name": "skfb_offset"
    },
    {
      "children": [
        3,
        4,
        5,
        6
      ],
      "name": "Object_2"
    },
    {
      "mesh": 0,
      "name": "Object_3"
    },
    {
      "mesh": 1,
      "name": "Object_4"
    },
    {
      "mesh": 2,
      "name": "Object_5"
    },
    {
      "mesh": 3,
      "name": "Object_6"
    }
  ],
  "scene": 0,
  "scenes": [
    {
      "name": "Sketchfab_Scene",
      "nodes": [
        0
      ]
    }
  ]
}
